<svg version="1.2" xmlns="http://www.w3.org/2000/svg" viewBox="0 0 737.3314314859209 593.7308809756098" width="738" height="594">
	<style>
		.s0 { fill: #3f3d56 } 
		.s1 { fill: #cccccc } 
		.s2 { fill: #6c63ff } 
	</style>
	<g id="Layer 1">
		<path class="s0" d="m268.3 450.37c-1.1-2.65-1.73-5.48-1.85-8.36-0.12-2.87 0.28-5.74 1.16-8.48 0.89-2.73 2.25-5.29 4.03-7.55 1.78-2.26 3.95-4.18 6.4-5.68 1.65-1 0.14-3.6-1.51-2.59-2.81 1.68-5.3 3.86-7.33 6.42-2.03 2.57-3.58 5.49-4.57 8.61-0.99 3.12-1.4 6.4-1.21 9.67 0.18 3.27 0.96 6.48 2.3 9.47 0.75 1.77 3.34 0.25 2.58-1.51z"/>
		<path class="s0" d="m269.16 454.4c-4.04-7.16-3.09-15.74-1.64-23.49 1.52-8.08 3.51-16.3 1.79-24.52q-0.29-1.49-0.78-2.93-0.49-1.44-1.17-2.8-0.67-1.36-1.53-2.62-0.85-1.25-1.87-2.38c-1.31-1.43-3.43 0.7-2.12 2.12 5.09 5.52 5.68 13.54 4.85 20.65-0.97 8.4-3.73 16.58-3.39 25.11q0.04 1.62 0.26 3.22 0.23 1.6 0.64 3.16 0.41 1.57 1.01 3.07 0.59 1.5 1.36 2.93c0.21 0.33 0.54 0.56 0.92 0.65 0.37 0.09 0.77 0.04 1.11-0.16 0.33-0.2 0.58-0.52 0.69-0.89 0.1-0.37 0.06-0.77-0.13-1.12z"/>
		<path class="s1" d="m290.87 477.28h-50.98q-0.89 0-1.72-0.34-0.82-0.34-1.46-0.98-0.63-0.63-0.97-1.45-0.34-0.83-0.35-1.72v-14.98c0.01-1.9 0.38-3.79 1.11-5.55 0.73-1.76 1.8-3.36 3.15-4.71 1.35-1.34 2.95-2.41 4.71-3.14 1.76-0.73 3.64-1.11 5.55-1.11h7.47q0.3 0 0.58-0.12 0.27-0.11 0.48-0.32 0.21-0.21 0.33-0.49 0.11-0.27 0.11-0.57v-7q0-0.49 0.19-0.95 0.19-0.46 0.55-0.81 0.35-0.35 0.81-0.54 0.45-0.19 0.95-0.2h8q0.49 0.01 0.95 0.2 0.46 0.19 0.81 0.54 0.35 0.35 0.55 0.81 0.19 0.46 0.19 0.95v7q0 0.3 0.11 0.57 0.12 0.28 0.33 0.49 0.21 0.21 0.48 0.32 0.28 0.12 0.58 0.12h7.47c1.91 0 3.79 0.38 5.55 1.11 1.76 0.73 3.36 1.8 4.71 3.14 1.35 1.35 2.42 2.95 3.15 4.71 0.73 1.76 1.1 3.65 1.11 5.55v14.98q-0.01 0.89-0.35 1.72-0.34 0.82-0.97 1.45-0.64 0.64-1.46 0.98-0.83 0.34-1.72 0.34z"/>
		<path class="s2" d="m266.16 387.36c1.08 5.7-0.25 10.73-2.96 11.24-2.72 0.51-5.79-3.69-6.86-9.39-1.07-5.69 2.23-15.16 2.23-15.16 0 0 6.52 7.62 7.59 13.31z"/>
		<path class="s2" d="m286.75 413.86c-3.4 4.7-7.97 7.19-10.21 5.58-2.23-1.62-1.29-6.74 2.11-11.44 3.4-4.69 12.55-8.81 12.55-8.81 0 0-1.05 9.98-4.45 14.67z"/>
		<path class="s0" d="m174.35 90.53c-1.11-2.65-1.74-5.48-1.86-8.35-0.11-2.88 0.28-5.75 1.17-8.48 0.88-2.74 2.25-5.3 4.03-7.55 1.78-2.26 3.94-4.19 6.4-5.69 1.64-1 0.14-3.59-1.52-2.59-2.81 1.68-5.29 3.86-7.33 6.43-2.03 2.57-3.58 5.48-4.57 8.61-0.98 3.12-1.4 6.39-1.21 9.67 0.19 3.27 0.96 6.47 2.3 9.47 0.75 1.77 3.34 0.24 2.59-1.52z"/>
		<path class="s0" d="m175.2 94.57c-4.04-7.17-3.09-15.74-1.63-23.49 1.52-8.09 3.51-16.3 1.78-24.53q-0.29-1.49-0.78-2.93-0.49-1.44-1.16-2.8-0.68-1.36-1.54-2.61-0.85-1.26-1.87-2.39c-1.31-1.42-3.42 0.7-2.12 2.12 5.09 5.53 5.68 13.54 4.85 20.66-0.97 8.39-3.73 16.57-3.38 25.1q0.03 1.62 0.25 3.22 0.23 1.6 0.64 3.17 0.42 1.56 1.01 3.06 0.6 1.51 1.37 2.93c0.2 0.33 0.53 0.56 0.91 0.66 0.38 0.09 0.78 0.03 1.11-0.17 0.34-0.19 0.58-0.51 0.69-0.89 0.1-0.37 0.06-0.77-0.13-1.11z"/>
		<path class="s1" d="m196.91 117.45h-50.98q-0.89-0.01-1.72-0.35-0.82-0.34-1.46-0.97-0.63-0.64-0.97-1.46-0.34-0.83-0.34-1.72v-14.97c0-1.91 0.37-3.8 1.11-5.56 0.73-1.76 1.79-3.36 3.14-4.7 1.35-1.35 2.95-2.42 4.71-3.15 1.76-0.73 3.64-1.11 5.55-1.11h7.48q0.29 0 0.57-0.11 0.27-0.12 0.49-0.33 0.21-0.21 0.32-0.48 0.11-0.28 0.12-0.58v-6.99q0-0.5 0.19-0.96 0.19-0.46 0.54-0.81 0.35-0.35 0.81-0.54 0.46-0.19 0.95-0.19h8q0.5 0 0.96 0.19 0.45 0.19 0.81 0.54 0.35 0.35 0.54 0.81 0.19 0.46 0.19 0.96v6.99q0 0.3 0.11 0.58 0.12 0.27 0.33 0.48 0.21 0.21 0.49 0.33 0.27 0.11 0.57 0.11h7.48c1.9 0 3.79 0.38 5.55 1.11 1.76 0.73 3.36 1.8 4.7 3.15 1.35 1.34 2.42 2.94 3.15 4.7 0.73 1.76 1.11 3.65 1.11 5.56v14.97q0 0.89-0.35 1.72-0.34 0.82-0.97 1.46-0.63 0.63-1.46 0.97-0.83 0.34-1.72 0.35z"/>
		<path class="s2" d="m172.21 27.53c1.07 5.69-0.26 10.73-2.97 11.24-2.71 0.51-5.78-3.7-6.86-9.39-1.07-5.7 2.23-15.17 2.23-15.17 0 0 6.52 7.62 7.6 13.32z"/>
		<path class="s2" d="m192.79 54.03c-3.4 4.69-7.97 7.19-10.2 5.57-2.24-1.62-1.3-6.74 2.1-11.43 3.4-4.7 12.55-8.81 12.55-8.81 0 0-1.05 9.97-4.45 14.67z"/>
		<path class="s2" d="m31.99 271.88h40.98v14.99h-40.98z"/>
		<path class="s2" d="m31.99 320.85h40.98v15h-40.98z"/>
		<path class="s0" d="m322.85 592.73h-305.86c-2.23 0-4.44-0.44-6.5-1.3-2.06-0.85-3.93-2.1-5.51-3.68-1.57-1.58-2.83-3.45-3.68-5.51-0.86-2.06-1.3-4.27-1.3-6.5v-558.75c0-2.23 0.44-4.44 1.3-6.5 0.85-2.06 2.11-3.93 3.68-5.51 1.58-1.57 3.45-2.83 5.51-3.68 2.06-0.86 4.27-1.3 6.5-1.3h305.86c2.23 0 4.44 0.44 6.5 1.3 2.06 0.85 3.94 2.11 5.51 3.68 1.58 1.58 2.83 3.45 3.69 5.51 0.85 2.06 1.29 4.27 1.3 6.5v558.75c-0.01 2.23-0.45 4.44-1.3 6.5-0.86 2.06-2.11 3.93-3.69 5.51-1.57 1.58-3.45 2.83-5.51 3.68-2.06 0.86-4.27 1.3-6.5 1.3zm-305.86-590.73c-1.97 0-3.91 0.39-5.73 1.14-1.82 0.76-3.47 1.86-4.86 3.26-1.4 1.39-2.5 3.04-3.26 4.86-0.75 1.82-1.14 3.76-1.14 5.73v558.75c0 1.97 0.39 3.92 1.14 5.73 0.76 1.82 1.86 3.47 3.26 4.87 1.39 1.39 3.04 2.49 4.86 3.25 1.82 0.75 3.76 1.14 5.73 1.14h305.86c1.97 0 3.92-0.39 5.74-1.14 1.82-0.76 3.47-1.86 4.86-3.25 1.39-1.4 2.5-3.05 3.25-4.87 0.76-1.81 1.14-3.76 1.15-5.73v-558.75c-0.01-1.97-0.39-3.91-1.15-5.73-0.75-1.82-1.86-3.47-3.25-4.86-1.39-1.4-3.04-2.5-4.86-3.26-1.82-0.75-3.77-1.14-5.74-1.14z"/>
		<path class="s0" d="m1 115.4h337.85v2h-337.85z"/>
		<path class="s0" d="m1 235.38h337.85v2h-337.85z"/>
		<path class="s0" d="m1 355.35h337.85v2h-337.85z"/>
		<path class="s0" d="m1 475.33h337.85v2h-337.85z"/>
		<path class="s0" d="m69.97 357.84h-33.99q-0.99-0.01-1.91-0.38-0.91-0.39-1.62-1.09-0.7-0.7-1.08-1.62-0.38-0.92-0.38-1.91v-96.96q0-0.99 0.38-1.91 0.38-0.91 1.08-1.62 0.71-0.7 1.62-1.08 0.92-0.38 1.91-0.38h33.99q0.99 0 1.91 0.38 0.92 0.38 1.62 1.08 0.7 0.71 1.08 1.62 0.38 0.92 0.39 1.91v96.96q-0.01 0.99-0.39 1.91-0.38 0.92-1.08 1.62-0.7 0.7-1.62 1.09-0.92 0.37-1.91 0.38zm-33.99-104.95q-0.59 0-1.14 0.22-0.55 0.23-0.98 0.65-0.42 0.43-0.65 0.98-0.22 0.55-0.22 1.14v96.96q0 0.6 0.22 1.15 0.23 0.55 0.65 0.97 0.43 0.42 0.98 0.65 0.55 0.23 1.14 0.23h33.99q0.59 0 1.15-0.23 0.55-0.23 0.97-0.65 0.42-0.42 0.65-0.97 0.23-0.55 0.23-1.15v-96.96q0-0.59-0.23-1.14-0.23-0.55-0.65-0.98-0.42-0.42-0.97-0.65-0.56-0.22-1.15-0.22z"/>
		<path class="s2" d="m94.96 271.88h40.98v14.99h-40.98z"/>
		<path class="s2" d="m94.96 320.85h40.98v15h-40.98z"/>
		<path class="s0" d="m132.94 357.84h-33.98q-1-0.01-1.92-0.38-0.91-0.39-1.62-1.09-0.7-0.7-1.08-1.62-0.38-0.92-0.38-1.91v-96.96q0-0.99 0.38-1.91 0.38-0.91 1.08-1.62 0.71-0.7 1.62-1.08 0.92-0.38 1.92-0.38h33.98q0.99 0 1.91 0.38 0.92 0.38 1.62 1.08 0.7 0.71 1.09 1.62 0.37 0.92 0.38 1.91v96.96q-0.01 0.99-0.38 1.91-0.39 0.92-1.09 1.62-0.7 0.7-1.62 1.09-0.92 0.37-1.91 0.38zm-33.98-104.95q-0.6 0-1.15 0.22-0.55 0.23-0.97 0.65-0.42 0.43-0.65 0.98-0.23 0.55-0.23 1.14v96.96q0 0.6 0.23 1.15 0.23 0.55 0.65 0.97 0.42 0.42 0.97 0.65 0.55 0.23 1.15 0.23h33.98q0.6 0 1.15-0.23 0.55-0.23 0.97-0.65 0.42-0.42 0.65-0.97 0.23-0.55 0.23-1.15v-96.96q0-0.59-0.23-1.14-0.23-0.55-0.65-0.98-0.42-0.42-0.97-0.65-0.55-0.22-1.15-0.22z"/>
		<path class="s2" d="m194.91 150.93h40.98v14.99h-40.98z"/>
		<path class="s2" d="m194.91 199.91h40.98v14.99h-40.98z"/>
		<path class="s0" d="m232.89 236.89h-33.98q-0.99 0-1.91-0.38-0.92-0.38-1.62-1.08-0.7-0.71-1.09-1.62-0.37-0.92-0.38-1.92v-96.95q0.01-0.99 0.38-1.91 0.39-0.92 1.09-1.62 0.7-0.7 1.62-1.09 0.92-0.38 1.91-0.38h33.98q1 0 1.92 0.38 0.91 0.39 1.62 1.09 0.7 0.7 1.08 1.62 0.38 0.92 0.38 1.91v96.95q0 1-0.38 1.92-0.38 0.91-1.08 1.62-0.71 0.7-1.62 1.08-0.92 0.38-1.92 0.38zm-33.98-104.95q-0.6 0-1.15 0.23-0.55 0.23-0.97 0.65-0.42 0.42-0.65 0.97-0.23 0.55-0.23 1.15v96.95q0 0.6 0.23 1.15 0.23 0.55 0.65 0.97 0.42 0.42 0.97 0.65 0.55 0.23 1.15 0.23h33.98q0.6 0 1.15-0.23 0.55-0.23 0.97-0.65 0.42-0.42 0.65-0.97 0.23-0.55 0.23-1.15v-96.95q0-0.6-0.23-1.15-0.23-0.55-0.65-0.97-0.42-0.42-0.97-0.65-0.55-0.23-1.15-0.23z"/>
		<path class="s2" d="m257.88 150.93h40.98v14.99h-40.98z"/>
		<path class="s2" d="m257.88 199.91h40.98v14.99h-40.98z"/>
		<path class="s0" d="m295.87 236.89h-33.99q-0.99 0-1.91-0.38-0.92-0.38-1.62-1.08-0.7-0.71-1.08-1.62-0.38-0.92-0.39-1.92v-96.95q0.01-0.99 0.39-1.91 0.38-0.92 1.08-1.62 0.7-0.7 1.62-1.09 0.92-0.38 1.91-0.38h33.99q0.99 0 1.91 0.38 0.91 0.39 1.62 1.09 0.7 0.7 1.08 1.62 0.38 0.92 0.38 1.91v96.95q0 1-0.38 1.92-0.38 0.91-1.08 1.62-0.71 0.7-1.62 1.08-0.92 0.38-1.91 0.38zm-33.99-104.95q-0.59 0-1.15 0.23-0.55 0.23-0.97 0.65-0.42 0.42-0.65 0.97-0.23 0.55-0.23 1.15v96.95q0 0.6 0.23 1.15 0.23 0.55 0.65 0.97 0.42 0.42 0.97 0.65 0.56 0.23 1.15 0.23h33.99q0.59 0 1.14-0.23 0.55-0.23 0.98-0.65 0.42-0.42 0.65-0.97 0.22-0.55 0.22-1.15v-96.95q0-0.6-0.22-1.15-0.23-0.55-0.65-0.97-0.43-0.42-0.98-0.65-0.55-0.23-1.14-0.23z"/>
		<path class="s2" d="m147.84 277.34l38.37-14.42 5.27 14.04-38.36 14.41z"/>
		<path class="s2" d="m165.07 323.19l38.36-14.42 5.28 14.04-38.36 14.41z"/>
		<path class="s0" d="m180.06 356.72q-0.76 0-1.49-0.23-0.72-0.23-1.35-0.66-0.63-0.44-1.1-1.04-0.46-0.6-0.73-1.31l-34.11-90.76q-0.34-0.93-0.31-1.92 0.03-1 0.44-1.9 0.41-0.91 1.14-1.59 0.72-0.67 1.65-1.03l31.81-11.95q0.94-0.35 1.93-0.32 0.99 0.04 1.9 0.45 0.9 0.41 1.58 1.13 0.68 0.73 1.03 1.66l34.11 90.76q0.34 0.93 0.31 1.92-0.03 1-0.44 1.9-0.42 0.9-1.14 1.58-0.73 0.68-1.65 1.03l-31.82 11.96q-0.21 0.08-0.42 0.14-0.22 0.06-0.44 0.1-0.22 0.04-0.45 0.06-0.22 0.02-0.45 0.02zm-2.29-110.71q-0.13 0-0.26 0.01-0.14 0.01-0.27 0.04-0.14 0.02-0.27 0.06-0.13 0.03-0.25 0.08l-31.81 11.95q-0.56 0.22-1 0.62-0.43 0.41-0.68 0.95-0.24 0.55-0.27 1.14-0.01 0.6 0.19 1.16l34.11 90.76q0.21 0.55 0.62 0.99 0.4 0.43 0.95 0.68 0.54 0.25 1.14 0.27 0.59 0.02 1.15-0.19l31.81-11.96q0.56-0.21 1-0.61 0.43-0.41 0.68-0.96 0.24-0.54 0.26-1.13 0.02-0.6-0.19-1.16l-34.1-90.76q-0.16-0.43-0.44-0.79-0.28-0.36-0.66-0.62-0.38-0.26-0.81-0.4-0.44-0.13-0.9-0.13z"/>
		<path class="s2" d="m9.91 158.39l38.36-14.41 5.27 14.03-38.36 14.42z"/>
		<path class="s2" d="m27.13 204.24l38.37-14.42 5.27 14.04-38.36 14.41z"/>
		<path class="s0" d="m42.12 237.78q-0.76-0.01-1.48-0.23-0.73-0.23-1.36-0.67-0.62-0.43-1.09-1.03-0.47-0.6-0.74-1.32l-34.11-90.76q-0.34-0.93-0.31-1.92 0.04-0.99 0.44-1.9 0.42-0.9 1.14-1.58 0.73-0.68 1.65-1.03l31.82-11.96q0.93-0.35 1.92-0.31 0.99 0.03 1.9 0.44 0.9 0.41 1.59 1.14 0.67 0.72 1.02 1.65l34.11 90.76q0.35 0.93 0.31 1.93-0.03 0.99-0.44 1.89-0.41 0.91-1.14 1.59-0.72 0.68-1.65 1.03l-31.81 11.95q-0.22 0.08-0.43 0.14-0.22 0.06-0.44 0.1-0.22 0.04-0.45 0.06-0.22 0.02-0.45 0.03zm-2.28-110.72q-0.14 0-0.27 0.01-0.14 0.02-0.27 0.04-0.13 0.02-0.26 0.06-0.13 0.04-0.26 0.08l-31.81 11.96q-0.56 0.21-1 0.62-0.43 0.4-0.68 0.95-0.24 0.54-0.26 1.14-0.02 0.59 0.19 1.15l34.1 90.76q0.21 0.56 0.62 0.99 0.41 0.44 0.95 0.69 0.54 0.24 1.14 0.26 0.59 0.02 1.15-0.19l31.81-11.95q0.56-0.21 1-0.62 0.43-0.41 0.68-0.95 0.24-0.54 0.27-1.14 0.02-0.6-0.19-1.15l-34.11-90.76q-0.16-0.43-0.44-0.79-0.28-0.36-0.66-0.62-0.37-0.26-0.81-0.4-0.44-0.14-0.89-0.14z"/>
	</g>
</svg>